<svg width="128" height="32" viewBox="0 0 128 32" fill="none" xmlns="http://www.w3.org/2000/svg">
<g clip-path="url(#clip0_2_36)">
<path d="M18.9463 0.807648C18.9463 0.346135 19.3331 0 19.7974 0H20.997C21.4999 0 21.8481 0.346135 21.8481 0.807648V2.07681C21.8481 2.53832 21.4999 2.88446 20.997 2.88446H19.7974C19.3331 2.88446 18.9463 2.53832 18.9463 2.07681V0.807648ZM19.1009 8.11546C19.1009 7.65394 19.4878 7.30781 19.9521 7.30781H20.8421C21.3449 7.30781 21.6932 7.65394 21.6932 8.11546V30.9232C21.6932 31.3848 21.3449 31.7309 20.8421 31.7309H19.9521C19.4878 31.7309 19.1009 31.3848 19.1009 30.9232V8.11546Z" fill="#DC4619"/>
<path d="M35.7242 7.07705C36.2659 7.07705 36.6913 7.38483 36.6913 7.96172V8.80772C36.6913 9.30759 36.2656 9.57702 35.7627 9.57702H34.9888C31.3516 9.57702 30.6938 11.5384 30.6938 14.6156V30.8849C30.6938 31.3464 30.307 31.7309 29.7652 31.7309H29.0302C28.5273 31.7309 28.1016 31.3464 28.1016 30.8849V8.34621C28.1016 7.76932 28.5273 7.26914 29.2623 7.26914C29.6491 7.26914 29.9587 7.46154 30.2684 7.73065L30.3459 7.80767C30.578 8.03843 30.7327 8.11545 31.0037 8.11545C31.3134 8.11545 31.8937 7.84634 32.358 7.6923C33.0545 7.42318 34.4088 7.07705 35.4148 7.07705H35.7245H35.7242Z" fill="#DC4619"/>
<path d="M59.5964 0.807648C59.5964 0.346135 59.9832 0 60.4475 0H61.3761C61.879 0 62.2272 0.346135 62.2272 0.807648V5.65385C62.2272 5.99998 62.1886 6.57687 62.1886 6.73092C62.1886 7.11541 62.2661 7.30781 62.3822 7.46154C62.4983 7.61528 62.6918 7.73065 62.9626 7.73065C63.1947 7.73065 63.3494 7.6923 63.4655 7.65363C64.1233 7.46123 64.8972 7.03839 66.4448 7.03839C68.1473 7.03839 69.8112 7.73065 70.8559 8.99982C71.862 10.1923 72.4424 11.8843 72.4424 14.2305V30.9226C72.4424 31.3841 72.0941 31.7303 71.6298 31.7303H70.6627C70.1984 31.7303 69.8502 31.3841 69.8502 30.9226V14.4999C69.8502 12.7693 69.4244 11.5768 68.8441 10.7692C68.2251 9.92315 67.219 9.5 66.1744 9.5C63.6979 9.5 62.189 11.1153 62.189 14.1538V30.9229C62.189 31.3844 61.8407 31.7306 61.3379 31.7306H60.4479C59.9836 31.7306 59.5967 31.3844 59.5967 30.9229V0.807648H59.5964Z" fill="#DC4619"/>
<path d="M78.1067 24.923V24.4998C78.1067 22.9612 78.4935 21.3076 79.3835 20.1151C80.3896 18.8073 81.86 17.8843 84.3364 17.8843H87.5479C88.0122 17.8843 88.3604 17.5765 88.3604 17.0766V14.3075C88.3604 11.0383 86.8125 9.5 84.5686 9.5C82.3246 9.5 80.7767 11.0386 80.7767 13.846V14.1151C80.7767 14.5766 80.3899 14.9228 79.9256 14.9228H78.9584C78.4941 14.9228 78.1459 14.5766 78.1459 14.1151V13.846C78.1459 9.69209 80.7384 7.03839 84.5689 7.03839C88.3993 7.03839 90.9918 9.5 90.9918 14.1538V30.6152C90.9918 31.192 90.605 31.6922 89.8311 31.6922C89.4443 31.6922 89.1346 31.5385 88.8639 31.2691L88.7864 31.192C88.5543 30.9613 88.3607 30.8843 88.09 30.8843C87.7803 30.8843 87.2 31.2304 86.7743 31.3841C86.0392 31.6532 85.1103 31.9227 84.1432 31.9227C80.3124 31.9227 78.107 28.9225 78.107 24.9226L78.1067 24.923ZM80.7764 24.7309C80.7764 28.0385 82.2853 29.5384 84.5682 29.5384C85.884 29.5384 86.9286 29.1152 87.5476 28.2306C88.0894 27.4999 88.3601 26.4612 88.3601 24.8459V21.0768C88.3601 20.6536 88.1279 20.3462 87.5476 20.3462H84.6843C83.3686 20.3462 82.4789 20.6923 81.8985 21.2692C81.1246 21.9998 80.7764 23.1539 80.7764 24.5768V24.7305V24.7309Z" fill="#DC4619"/>
<path d="M96.7533 24.8846V8.0768C96.7533 7.65364 97.1015 7.3075 97.5272 7.3075H98.5719C98.9976 7.3075 99.3458 7.65364 99.3458 8.0768V24.3844C99.3458 26.2305 99.6555 27.5767 100.468 28.4613C101.164 29.1919 102.171 29.5384 103.177 29.5384C104.183 29.5384 105.189 29.2306 105.962 28.5C106.775 27.6153 107.007 26.2308 107.007 24.3847V8.0768C107.007 7.65364 107.355 7.3075 107.858 7.3075H108.787C109.212 7.3075 109.599 7.65364 109.599 8.0768V30.6535C109.599 31.2304 109.174 31.7306 108.439 31.7306C108.052 31.7306 107.742 31.5768 107.432 31.3074L107.355 31.2304C107.123 30.9996 106.968 30.9226 106.697 30.9226C106.387 30.9226 105.807 31.2688 105.343 31.4225C104.646 31.6916 103.718 31.9994 102.75 31.9994C101.125 31.9994 99.6548 31.4608 98.4552 30.1917C97.4491 29.1146 96.7527 27.538 96.7527 24.884L96.7533 24.8846Z" fill="#DC4619"/>
<path d="M123.512 19.2691C126.607 20.8077 128 22.3076 128 25.4228V25.6152C128 28.7691 125.949 31.9997 121.732 31.9997C117.901 31.9997 115.425 29.3843 115.425 25.4612V24.9226C115.425 24.4611 115.812 24.115 116.276 24.115H117.243C117.669 24.115 118.056 24.4611 118.056 24.9226V25.4612C118.056 27.2305 118.868 29.5381 121.732 29.5381C124.595 29.5381 125.407 26.9998 125.407 25.6536V25.5382C125.407 23.4227 124.247 22.5381 122.389 21.615L119.758 20.3072C116.663 18.7686 115.424 17.3457 115.424 14.2302V13.4225C115.424 9.49937 118.133 7.03807 121.731 7.03807C125.833 7.03807 128 9.84582 128 13.5766V14.1151C128 14.5766 127.651 14.9228 127.148 14.9228H126.181C125.756 14.9228 125.369 14.5766 125.369 14.1151V13.5766C125.369 11.4228 124.247 9.49969 121.732 9.49969C119.487 9.49969 118.017 11.115 118.017 13.4229V14.0381C118.017 16.1536 119.178 17.192 121.035 18.0767L123.512 19.2691H123.512Z" fill="#DC4619"/>
<path d="M7.03692 14.1382C7.64627 14.1382 8.14025 13.6472 8.14025 13.0415C8.14025 12.4358 7.64627 11.9448 7.03692 11.9448C6.42757 11.9448 5.93359 12.4358 5.93359 13.0415C5.93359 13.6472 6.42757 14.1382 7.03692 14.1382Z" fill="#DC4619"/>
<path d="M14.7047 17.2562L12.8462 16.1898V14.2308C12.8462 11.8846 12.2659 10.1923 11.2598 9.00013C10.2151 7.73097 8.59009 7.0387 6.88757 7.0387C5.33971 7.0387 4.48861 7.57723 3.83075 7.76932C3.71468 7.80768 3.56002 7.84634 3.32787 7.84634C3.05713 7.84634 2.86357 7.73097 2.7475 7.57723C2.63143 7.4235 2.55394 7.2311 2.55394 6.84661C2.55394 6.69287 2.59253 6.11598 2.59253 5.76954V0.807648C2.59253 0.346135 2.2443 0 1.74142 0H0.851418C0.386808 0 0 0.346135 0 0.807648V30.6152C0 31.192 0.425709 31.6922 1.16074 31.6922C1.54755 31.6922 1.85718 31.5385 2.16682 31.2691L2.2443 31.192C2.47645 30.9613 2.63111 30.8843 2.90216 30.8843C3.2118 30.8843 3.79216 31.2304 4.25646 31.3841C4.9529 31.6532 5.9204 31.961 6.81009 31.961C10.6794 31.961 12.8462 29.0766 12.8462 24.961V19.3502L14.7047 18.2837C15.1028 18.0554 15.1028 17.4842 14.7047 17.2559V17.2562ZM10.2537 24.7309C10.2537 28.0385 8.70585 29.5384 6.46186 29.5384C5.10756 29.5384 4.10149 29.1152 3.44363 28.2306C2.90185 27.4999 2.59253 26.4999 2.59253 24.8843V14.1535C2.59253 11.115 3.83075 9.49968 6.61652 9.49968C7.66119 9.49968 8.70585 9.9612 9.32512 10.8075C9.90549 11.6152 10.2537 12.7689 10.2537 14.4999V24.7305V24.7309Z" fill="#DC4619"/>
<path d="M52.8455 0H51.9555C51.4526 0 51.1044 0.346135 51.1044 0.807648V5.76922C51.1044 6.11536 51.143 6.69225 51.143 6.8463C51.143 7.23079 51.0655 7.42319 50.9494 7.57692C50.8334 7.73065 50.6398 7.84603 50.3691 7.84603C50.1369 7.84603 49.9822 7.80768 49.8662 7.76901C49.2083 7.57661 48.3958 7.03839 46.8479 7.03839C45.1454 7.03839 43.4815 7.73065 42.4368 8.99982C41.4307 10.1923 40.8504 11.8843 40.8504 14.2305V16.1894L38.9919 17.2559C38.5938 17.4845 38.5938 18.0554 38.9919 18.2837L40.8504 19.3502V24.961C40.8504 29.0763 43.0172 31.961 46.8865 31.961C47.7765 31.961 48.7051 31.6532 49.4016 31.3841C49.8659 31.2304 50.4462 30.8843 50.7559 30.8843C51.0266 30.8843 51.1816 30.9613 51.4137 31.192L51.4912 31.2691C51.8008 31.5382 52.1102 31.6922 52.4973 31.6922C53.2323 31.6922 53.6969 31.1924 53.6969 30.6152V0.807648C53.6969 0.346135 53.3101 0 52.8458 0H52.8455ZM51.1044 24.8846C51.1044 26.4999 50.7948 27.4999 50.2533 28.2309C49.5954 29.1155 48.6283 29.5387 47.274 29.5387C45.0297 29.5387 43.4432 28.0388 43.4432 24.7312V14.5006C43.4432 12.7699 43.7914 11.6161 44.3718 10.8081C44.9908 9.96213 46.0743 9.50031 47.119 9.50031C49.9048 9.50031 51.1044 11.1156 51.1044 14.1541V24.8849V24.8846Z" fill="#DC4619"/>
<path d="M46.8959 14.1108C47.4911 13.9814 47.8681 13.3968 47.7379 12.8051C47.6077 12.2134 47.0195 11.8386 46.4243 11.9681C45.829 12.0975 45.452 12.6821 45.5822 13.2738C45.7125 13.8655 46.3006 14.2403 46.8959 14.1108Z" fill="#DC4619"/>
</g>
<defs>
<clipPath id="clip0_2_36">
<rect width="128" height="32" fill="white"/>
</clipPath>
</defs>
</svg>
